<?xml version="1.0" standalone="no"?>
<!DOCTYPE svg PUBLIC "-//W3C//DTD SVG 20010904//EN"
 "http://www.w3.org/TR/2001/REC-SVG-20010904/DTD/svg10.dtd">
<svg version="1.0" xmlns="http://www.w3.org/2000/svg"
 width="450.000000pt" height="450.000000pt" viewBox="0 0 450.000000 450.000000"
 preserveAspectRatio="xMidYMid meet">
<metadata>
Created by potrace 1.11, written by Peter Selinger 2001-2013
</metadata>
<g transform="translate(0.000000,450.000000) scale(0.100000,-0.100000)"
fill="#000000" stroke="none">
<path d="M2088 4376 c-1 -2 -32 -6 -68 -10 -36 -3 -75 -8 -86 -10 -12 -2 -39
-7 -60 -10 -220 -35 -548 -161 -722 -277 -24 -16 -45 -29 -48 -29 -3 0 -10 -4
-17 -10 -7 -5 -52 -39 -102 -76 -49 -37 -105 -81 -124 -98 -56 -50 -181 -178
-209 -216 -15 -19 -36 -44 -47 -55 -11 -11 -24 -27 -30 -36 -5 -9 -39 -58 -74
-110 -185 -269 -308 -605 -348 -949 -10 -83 -10 -362 -1 -462 37 -400 235
-857 508 -1172 68 -78 256 -256 270 -256 6 0 10 -3 10 -7 0 -5 20 -21 45 -38
24 -16 45 -33 45 -37 0 -5 4 -8 9 -8 4 0 41 -22 82 -49 122 -80 298 -165 452
-217 135 -47 249 -73 422 -100 69 -10 407 -13 475 -3 36 5 83 12 105 15 122
17 354 80 442 120 17 8 34 14 38 14 30 0 363 187 428 240 17 14 89 70 126 98
44 34 194 185 238 240 21 26 41 49 44 52 14 11 79 101 79 109 0 5 3 11 8 13
19 9 118 176 180 308 81 170 155 415 178 585 3 28 8 59 11 70 3 11 6 103 8
205 3 166 -2 258 -19 365 -3 19 -9 51 -12 70 -36 229 -172 567 -310 774 -27
41 -53 81 -59 90 -5 9 -12 18 -15 21 -3 3 -30 37 -61 75 -321 399 -808 677
-1318 751 -25 4 -55 9 -66 11 -22 6 -401 13 -407 9z"/>
</g>
</svg>
